<?xml version="1.0" encoding="iso-8859-1"?>
<!-- Generator: Adobe Illustrator 19.0.0, SVG Export Plug-In . SVG Version: 6.00 Build 0)  -->
<svg xmlns="http://www.w3.org/2000/svg" xmlns:xlink="http://www.w3.org/1999/xlink" version="1.1" id="Capa_1" x="0px" y="0px" viewBox="0 0 489.453 489.453" style="enable-background:new 0 0 489.453 489.453;" xml:space="preserve" width="512px" height="512px">
<path id="XMLID_501_" d="M230.757,138.135c-6.608,10.158,3.823,22.591,13.649,32.287c10.657,10.516,25.998,22.469,43.197,33.658  c17.198,11.189,34.344,20.371,48.276,25.854c7.201,2.833,15.264,5.492,22.125,5.491c5.38,0,10.022-1.636,12.928-6.103  c1.204-1.854,1.881-4.005,1.991-6.3l35.965-146.327c9.181-2.545,17.02-8.276,22.259-16.331c5.691-8.748,7.636-19.188,5.475-29.398  c-2.161-10.211-8.17-18.968-16.918-24.658h0.001c-18.058-11.746-42.308-6.613-54.057,11.443c-4.025,6.187-6.176,13.221-6.326,20.42  l-123.614,95.585C233.273,135.51,231.959,136.284,230.757,138.135z M362.968,188.116c-3.894,0.307-7.811-0.668-11.147-2.839  c-4.006-2.605-6.756-6.614-7.746-11.289c-0.989-4.674-0.1-9.453,2.506-13.457c3.424-5.262,9.166-8.127,15.021-8.127  c3.249,0,6.533,0.882,9.475,2.728L362.968,188.116z M380.737,27.568c4.033-6.199,10.799-9.574,17.695-9.574  c3.938,0,7.918,1.1,11.457,3.402c0,0,0,0,0.001,0c4.717,3.069,7.957,7.791,9.122,13.298c1.166,5.506,0.117,11.137-2.952,15.855  c-3.068,4.717-7.791,7.956-13.296,9.122c-0.638,0.135-2.28,0.349-2.46,0.373c-4.693,0.439-9.378-0.712-13.396-3.326  c-4.718-3.069-7.957-7.791-9.123-13.297S377.668,32.286,380.737,27.568z M336.19,78.813c3.764,5.764,3.976,13.419-0.003,19.532  c-2.604,4.004-6.612,6.754-11.287,7.743c-4.677,0.989-9.455,0.099-13.456-2.503c-1.295-0.843-2.46-1.833-3.479-2.948L336.19,78.813z   M293.699,111.67c2.258,2.687,4.918,5.043,7.927,7.002c8.035,5.227,17.622,7.011,27.003,5.027  c9.378-1.985,17.422-7.504,22.646-15.537c8.256-12.687,7.511-28.69-0.818-40.381L363.882,57.4  c3.065,5.789,7.568,10.735,13.211,14.406c4.07,2.648,8.508,4.485,13.117,5.475L375.483,137.2  c-15.69-6.605-34.386-1.246-43.99,13.515c-5.228,8.035-7.013,17.624-5.027,27.002s7.504,17.421,15.539,22.648  c5.034,3.275,10.723,5.194,16.557,5.684l-2.758,11.223c-8.151-1.22-29.237-9.315-58.383-28.278  c-29.151-18.965-45.096-34.961-49.511-41.917L293.699,111.67z M228.05,299.591c0-4.971,4.029-9,9-9  c9.837,0,17.84,8.004,17.84,17.843c0,4.971-4.029,9-9,9c-4.918,0-8.915-3.945-8.999-8.844  C231.995,308.505,228.05,304.508,228.05,299.591z M334.297,383.232c-22.133,39.514-58.486,63.104-97.246,63.104  c-38.762,0-75.115-23.591-97.246-63.105c-2.429-4.336-0.882-9.821,3.455-12.25c4.333-2.43,9.819-0.884,12.25,3.455  c18.902,33.751,49.386,53.9,81.541,53.9c32.154,0,62.638-20.15,81.541-53.901c2.431-4.336,7.914-5.884,12.251-3.454  C335.178,373.411,336.725,378.895,334.297,383.232z M432.369,219.443c-2.28-0.81-4.61-1.459-6.969-1.945  c1.11-2.138,2.074-4.354,2.883-6.634c6.499-18.304,2.403-38.604-10.697-52.986c-0.745-0.815-1.508-1.603-2.266-2.337  c-3.567-3.462-9.266-3.375-12.726,0.194c-3.461,3.567-3.374,9.266,0.194,12.726c0.498,0.484,1.006,1.008,1.499,1.548  c8.61,9.453,11.305,22.8,7.031,34.836c-1.973,5.563-5.351,10.546-9.771,14.413c-3.034,2.654-3.934,7.003-2.2,10.644  c1.733,3.64,5.672,5.682,9.65,5c5.778-0.995,11.777-0.474,17.349,1.505c19.534,6.934,24.27,24.463,22.39,37.366  c-1.896,13.012-11.457,28.586-32.167,29.658c-3.195,0.166-6.063,2.016-7.53,4.857c-1.469,2.843-1.317,6.252,0.397,8.953  c5.739,9.044,6.979,20.009,3.402,30.084c-5.255,14.801-19.561,24.065-35.053,22.894c-0.313-1.839-0.725-3.673-1.237-5.493  c-3.77-13.385-12.524-24.499-24.654-31.298c-1.878-1.053-3.796-1.978-5.739-2.774c0.913-6.008,3.42-11.77,7.224-16.506  c1.834-2.282,2.442-5.314,1.632-8.128c-0.812-2.813-2.94-5.057-5.707-6.014c-9.076-3.138-16.313-9.52-20.379-17.971  c-3.969-8.25-4.443-17.615-1.337-26.368c1.663-4.685-0.787-9.83-5.471-11.492c-4.688-1.664-9.829,0.787-11.492,5.471  c-4.725,13.312-3.986,27.585,2.08,40.193c4.55,9.457,11.688,17.193,20.604,22.494c-2.271,4.569-3.885,9.469-4.764,14.495  c-18.928-0.712-37.626,8.921-47.51,26.554c-0.001,0.001-0.001,0.001-0.002,0.002c-6.026,10.76-13.717,19.394-22.24,24.971  c-6.964,4.558-14.279,6.869-21.743,6.869c-7.466,0-14.78-2.311-21.744-6.87c-8.524-5.577-16.216-14.211-22.243-24.972  c-9.533-17.009-27.256-26.592-45.494-26.592c-0.014,0-0.029,0-0.042,0c-1.151-3.388-2.752-6.542-4.833-9.519  c8.217-5.823,14.342-14.321,17.181-24.253c3.316-11.598,1.921-23.729-3.931-34.157c-2.673-4.765-6.13-8.931-10.205-12.371  c6.112-4.549,11.368-10.613,15.576-18.042c4.554-8.041,7.569-17.325,8.931-26.819c5.154,3.296,11.067,5.554,17.544,6.595  c19.445,3.118,39.36-5.368,49.552-21.129c2.699-4.174,1.503-9.745-2.671-12.444c-4.176-2.698-9.747-1.502-12.444,2.671  c-6.278,9.708-19.265,15.105-31.582,13.13c-6.353-1.021-17.389-4.856-21.921-18.993c-0.211-0.786-0.437-1.565-0.676-2.336  c-1.454-4.669-6.366-7.324-11.068-5.979c-4.701,1.345-7.469,6.197-6.233,10.928c0.207,0.793,0.432,1.576,0.672,2.349  c3.552,13.579,1.32,30.647-5.766,43.159c-3.72,6.568-10.526,14.975-21.826,17.723c-3.983,0.969-6.809,4.506-6.873,8.604  c-0.063,4.099,2.649,7.723,6.601,8.815c7.196,1.989,13.124,6.588,16.692,12.947c3.484,6.21,4.309,13.455,2.322,20.402  c-2.441,8.538-8.94,15.307-17.388,18.105c-3.11,1.03-5.415,3.67-6.017,6.892c-0.601,3.221,0.597,6.515,3.126,8.599  c3.355,2.764,5.648,5.421,7.145,8.403c-2.457,0.919-4.874,2.037-7.232,3.358c-13.531,7.586-22.364,20.358-25.408,34.448  c-6.417-2.119-11.724-6.506-15.022-12.449c-3.479-6.268-4.31-13.516-2.337-20.411c1.262-4.414,3.641-8.444,6.878-11.653  c2.798-2.774,3.466-7.046,1.648-10.543c-1.816-3.495-5.699-5.404-9.575-4.707c-18.214,3.269-27.827-5.054-31.94-10.306  c-6.314-8.065-7.91-18.841-4.065-27.452c3.909-8.757,13.106-14.05,25.896-14.905c3.368-0.225,6.327-2.315,7.664-5.414  c1.337-3.1,0.828-6.687-1.319-9.291C54.612,216.475,49,191.058,58.819,169.176c9.104-20.289,30.658-34.505,53.636-35.374  c0.426-0.016,0.851-0.063,1.271-0.139c2.417-0.439,4.564-1.87,5.917-3.921c3.744-5.675,13.756-16.825,24.847-18.402  c6.334-0.9,12.539,1.32,18.969,6.792c2.507,2.134,5.979,2.729,9.055,1.549c3.074-1.179,5.26-3.943,5.697-7.206  c3.51-26.153,22.718-32.423,30.813-33.904c16.582-3.031,33.122,4.04,40.234,17.203c2.363,4.373,7.824,6.003,12.196,3.64  c4.373-2.363,6.003-7.823,3.64-12.196c-10.772-19.936-35.162-30.774-59.311-26.353c-20.128,3.684-35.453,17.031-42.229,35.984  c-6.979-3.264-14.207-4.38-21.6-3.33c-16.837,2.396-29.299,15.805-34.628,22.595c-27.966,2.697-53.685,20.63-64.931,45.693  c-6.658,14.839-13.36,43.604,9.586,78.563c-12.063,4.016-21.226,11.864-26.039,22.646c-6.529,14.624-4.045,32.637,6.329,45.887  c7.702,9.838,18.557,15.831,31.087,17.473c-0.463,1.21-0.874,2.44-1.231,3.69c-3.294,11.517-1.907,23.626,3.906,34.097  c5.813,10.473,15.356,18.053,26.871,21.346c1.069,0.306,2.148,0.571,3.234,0.797c0.885,6.151,2.893,12.243,6.107,17.979  c14.194,25.341,33.575,46.508,56.045,61.212c23.94,15.672,51.175,23.956,78.759,23.956c27.581,0,54.814-8.284,78.756-23.955  c22.474-14.706,41.854-35.873,56.044-61.211c2.845-5.073,4.791-10.482,5.816-16.039c23.126,1.196,44.28-12.773,52.136-34.901  c3.969-11.18,4.04-23.077,0.402-34.033c21.589-6.241,33.716-24.908,36.345-42.946C469.637,255.169,460.266,229.345,432.369,219.443z   M356.147,395.489c-12.781,22.821-30.139,41.821-50.197,54.947c-21.305,13.945-44.486,21.017-68.899,21.017  c-24.416,0-47.598-7.071-68.901-21.018c-20.056-13.124-37.414-32.124-50.198-54.949c-9.181-16.38-3.324-37.176,13.053-46.357  c5.254-2.944,10.962-4.343,16.596-4.343c11.931,0,23.525,6.271,29.761,17.395c7.438,13.277,17.151,24.078,28.09,31.233  c9.801,6.418,20.729,9.81,31.601,9.81c10.871,0,21.798-3.392,31.6-9.808c10.938-7.156,20.651-17.958,28.089-31.235  c9.182-16.376,29.975-22.231,46.355-13.052c7.935,4.448,13.663,11.72,16.129,20.476  C361.688,378.359,360.597,387.552,356.147,395.489z M281.949,250.188h-1.598c-4.971,0-9-4.029-9-9s4.029-9,9-9h1.598  c4.971,0,9,4.029,9,9S286.92,250.188,281.949,250.188z M237.05,353.697c24.958,0,45.264-20.306,45.264-45.266  c0-24.958-20.306-45.264-45.264-45.264c-24.959,0-45.265,20.306-45.265,45.264C191.786,333.391,212.091,353.697,237.05,353.697z   M237.05,281.168c15.033,0,27.264,12.23,27.264,27.264c0,15.034-12.23,27.266-27.264,27.266c-15.034,0-27.265-12.231-27.265-27.266  C209.786,293.398,222.016,281.168,237.05,281.168z M193.75,250.188h-1.597c-4.971,0-9-4.029-9-9s4.029-9,9-9h1.597  c4.971,0,9,4.029,9,9S198.72,250.188,193.75,250.188z" fill="#D80027"/>
<g>
</g>
<g>
</g>
<g>
</g>
<g>
</g>
<g>
</g>
<g>
</g>
<g>
</g>
<g>
</g>
<g>
</g>
<g>
</g>
<g>
</g>
<g>
</g>
<g>
</g>
<g>
</g>
<g>
</g>
</svg>
