<?xml version="1.0" encoding="iso-8859-1"?>
<!-- Generator: Adobe Illustrator 19.0.0, SVG Export Plug-In . SVG Version: 6.00 Build 0)  -->
<svg xmlns="http://www.w3.org/2000/svg" xmlns:xlink="http://www.w3.org/1999/xlink" version="1.1" id="Layer_1" x="0px" y="0px" viewBox="0 0 512 512" style="enable-background:new 0 0 512 512;" xml:space="preserve" width="512px" height="512px">
<g>
	<g>
		<path d="M464.804,0H47.196c-5.633,0-10.199,4.566-10.199,10.199v491.602c0,5.633,4.566,10.199,10.199,10.199h417.607    c5.633,0,10.199-4.566,10.199-10.199V10.199C475.003,4.566,470.437,0,464.804,0z M57.396,20.398h397.209v32.637H57.396V20.398z     M399.809,73.434v53.036H297.817V73.434H399.809z M57.396,73.434h220.023v53.036H57.396V73.434z M57.396,491.602V146.869h397.209    v344.733H57.396z M454.606,126.47h-34.398V73.434h34.398V126.47z" fill="#1a00b0"/>
	</g>
</g>
<g>
	<g>
		<path d="M256.001,178.486c-77.609,0-140.749,63.14-140.749,140.749s63.14,140.749,140.749,140.749s140.749-63.14,140.749-140.749    S333.609,178.486,256.001,178.486z M256.001,439.586c-66.361,0-120.351-53.99-120.351-120.351s53.99-120.351,120.351-120.351    s120.351,53.99,120.351,120.351S322.362,439.586,256.001,439.586z" fill="#1a00b0"/>
	</g>
</g>
<g>
	<g>
		<path d="M256.001,216.223c-56.8,0-103.012,46.212-103.012,103.012c0,3.709,0.206,7.487,0.612,11.228    c0,0.003,0.001,0.007,0.002,0.01c5.683,52.32,49.703,91.773,102.397,91.773c27.358,0,53.121-10.611,72.542-29.878    c19.405-19.252,30.222-44.902,30.46-72.226c0-0.001,0-0.002,0-0.004l0.004-0.246c0.003-0.219,0.007-0.439,0.007-0.659    C359.013,262.435,312.802,216.223,256.001,216.223z M256.001,401.849c-40.011,0-73.786-28.355-81.135-66.973    c9.008-4.288,19.616-6.461,31.638-6.461c21.485,0,32.928,6.654,43.024,12.526c8.028,4.668,16.329,9.496,27.35,9.496    c10.86,0,18.622-3.82,26.839-7.863c8.45-4.158,17.828-8.768,33.987-11.137C331.763,371.177,297.265,401.849,256.001,401.849z     M294.712,324.271c-7.058,3.473-11.72,5.767-17.833,5.767c-5.265,0-9.704-2.433-17.096-6.732    c-11.097-6.453-26.294-15.291-53.279-15.291c-11.988,0-22.998,1.785-32.908,5.322c3.032-42.812,38.833-76.716,82.404-76.716    c42.703,0,77.943,32.572,82.186,74.175C316.668,313.467,304.164,319.62,294.712,324.271z" fill="#1a00b0"/>
	</g>
</g>
<g>
	<g>
		<path d="M257.546,287.723c-8.23-4.168-17.33-8.459-30.065-11.11c-5.516-1.146-10.915,2.392-12.064,7.906    c-1.147,5.515,2.393,10.916,7.907,12.064c10.3,2.144,17.705,5.64,25.004,9.337c1.478,0.749,3.051,1.102,4.601,1.102    c3.722,0,7.31-2.045,9.107-5.593C264.582,296.404,262.571,290.267,257.546,287.723z" fill="#1a00b0"/>
	</g>
</g>
<g>
	<g>
		<path d="M306.283,297.746c-2.07-5.238-7.994-7.805-13.234-5.735c-4.275,1.69-7.47,2.57-10.679,2.94    c-5.595,0.647-9.608,5.706-8.962,11.303c0.6,5.198,5.009,9.029,10.119,9.029c0.391,0,0.786-0.022,1.183-0.068    c6.419-0.741,11.836-2.653,15.838-4.235C305.786,308.91,308.353,302.985,306.283,297.746z" fill="#1a00b0"/>
	</g>
</g>
<g>
	<g>
		<path d="M376.351,85.673h-5.1c-5.633,0-10.199,4.566-10.199,10.199c0,5.633,4.566,10.199,10.199,10.199h5.1    c5.633,0,10.199-4.566,10.199-10.199C386.55,90.24,381.984,85.673,376.351,85.673z" fill="#1a00b0"/>
	</g>
</g>
<g>
	<g>
		<path d="M339.634,85.673h-17.339c-5.633,0-10.199,4.566-10.199,10.199c0,5.633,4.566,10.199,10.199,10.199h17.339    c5.633,0,10.199-4.566,10.199-10.199C349.833,90.24,345.267,85.673,339.634,85.673z" fill="#1a00b0"/>
	</g>
</g>
<g>
	<g>
		<path d="M96.893,84.653c-8.436,0-15.299,6.863-15.299,15.299c0,8.436,6.863,15.299,15.299,15.299    c8.436,0,15.299-6.863,15.299-15.299C112.192,91.516,105.329,84.653,96.893,84.653z M96.893,105.052c-2.812,0-5.1-2.288-5.1-5.1    c0-2.812,2.288-5.1,5.1-5.1c2.812,0,5.1,2.288,5.1,5.1C101.993,102.764,99.705,105.052,96.893,105.052z" fill="#1a00b0"/>
	</g>
</g>
<g>
	<g>
		<path d="M145.849,84.653c-8.436,0-15.299,6.863-15.299,15.299c0,8.436,6.863,15.299,15.299,15.299    c8.436,0,15.299-6.863,15.299-15.299C161.148,91.516,154.285,84.653,145.849,84.653z M145.849,105.052c-2.812,0-5.1-2.288-5.1-5.1    c0-2.812,2.288-5.1,5.1-5.1c2.812,0,5.1,2.288,5.1,5.1C150.949,102.764,148.661,105.052,145.849,105.052z" fill="#1a00b0"/>
	</g>
</g>
<g>
</g>
<g>
</g>
<g>
</g>
<g>
</g>
<g>
</g>
<g>
</g>
<g>
</g>
<g>
</g>
<g>
</g>
<g>
</g>
<g>
</g>
<g>
</g>
<g>
</g>
<g>
</g>
<g>
</g>
</svg>
