<?xml version="1.0" encoding="iso-8859-1"?>
<!-- Generator: Adobe Illustrator 16.0.0, SVG Export Plug-In . SVG Version: 6.00 Build 0)  -->
<!DOCTYPE svg PUBLIC "-//W3C//DTD SVG 1.1//EN" "http://www.w3.org/Graphics/SVG/1.1/DTD/svg11.dtd">
<svg xmlns="http://www.w3.org/2000/svg" xmlns:xlink="http://www.w3.org/1999/xlink" version="1.1" id="Capa_1" x="0px" y="0px" width="512px" height="512px" viewBox="0 0 32.119 32.118" style="enable-background:new 0 0 32.119 32.118;" xml:space="preserve">
<g>
	<g>
		<path d="M26.939,19.915v-7.043l-10.747,1.712L5.441,12.871v6.857c-0.734,0.436-1.248,1.399-1.248,2.524    c0,1.126,0.514,2.089,1.248,2.524v5.63l10.751,1.711l10.747-1.711v-5.814c0.593-0.493,0.986-1.354,0.986-2.34    C27.925,21.268,27.532,20.408,26.939,19.915z M15.703,31.055l-9.287-1.479v-4.56c1.12-0.074,2.013-1.275,2.013-2.763    c0-1.485-0.893-2.688-2.013-2.761v-5.478l9.287,1.479V31.055z M25.964,15.977v3.522c-0.054-0.004-0.104-0.021-0.156-0.021    c-1.17,0-2.118,1.244-2.118,2.774c0,1.532,0.948,2.774,2.118,2.774c0.054,0,0.104-0.016,0.156-0.021v4.567l-9.287,1.479v-15.56    l9.287-1.48V15.977z" fill="#D80027"/>
		<path d="M8.293,8.794c-0.099,0.322-0.2,0.65-0.258,0.992c-0.068,0.427-0.106,0.865-0.106,1.312c0,0.422,0.042,0.834,0.104,1.238    l8.159,1.298l7.517-1.197c0.074-0.436,0.121-0.882,0.121-1.339c0-0.88-0.176-1.709-0.438-2.5l1.616-2.228l-2.895-1.017    l0.564-2.958l-3.531,1.011L17.519,0l-3.016,3.148l-2.337-2.71l-1.102,3.577l-3.75-1.229l1.413,3.16L5.999,6.715L8.293,8.794z" fill="#D80027"/>
	</g>
</g>
<g>
</g>
<g>
</g>
<g>
</g>
<g>
</g>
<g>
</g>
<g>
</g>
<g>
</g>
<g>
</g>
<g>
</g>
<g>
</g>
<g>
</g>
<g>
</g>
<g>
</g>
<g>
</g>
<g>
</g>
</svg>
